<?xml version="1.0" encoding="UTF-8" standalone="no"?>
<!DOCTYPE svg PUBLIC "-//W3C//DTD SVG 1.1//EN" "http://www.w3.org/Graphics/SVG/1.1/DTD/svg11.dtd">
<svg width="100%" height="100%" viewBox="0 0 1134 235" version="1.1" xmlns="http://www.w3.org/2000/svg" xmlns:xlink="http://www.w3.org/1999/xlink" xml:space="preserve" xmlns:serif="http://www.serif.com/" style="fill-rule:evenodd;clip-rule:evenodd;stroke-linejoin:round;stroke-miterlimit:2;">
    <g transform="matrix(1,0,0,1,-159.955372,-1904.557005)">
        <g transform="matrix(1,0,0,1,5,1718)">
            <g transform="matrix(1,0,0,1,-256,-148)">
                <g transform="matrix(1,0,0,1,481,-775.842995)">
                    <g transform="matrix(1,0,0,1,-6.1,0)">
                        <g transform="matrix(1,0,0,1,-187,-4)">
                            <path d="M748.073,1270.106C751.458,1271.669 753.681,1274.995 753.831,1278.72C753.98,1282.444 752.03,1285.939 748.782,1287.767C748.8,1287.8 748.8,1287.8 748.8,1287.8C738.222,1293.756 725.961,1296.733 712.017,1296.733C698.258,1296.733 686.127,1293.756 675.623,1287.8C665.119,1281.844 656.889,1273.667 650.933,1263.267C644.978,1252.867 642,1241.043 642,1227.796C642,1214.376 644.978,1202.467 650.933,1192.067C656.889,1181.667 665.119,1173.489 675.623,1167.533C681.935,1163.954 688.835,1161.451 696.322,1160.023C699.076,1159.493 701.905,1160.446 703.777,1162.534C705.648,1164.621 706.288,1167.538 705.463,1170.217C703.16,1178.167 702,1186.699 702,1195.82C702,1211.523 705.53,1225.538 712.589,1237.866C719.649,1250.193 729.404,1259.887 741.855,1266.946C743.877,1268.093 745.95,1269.146 748.073,1270.106Z" style="fill:rgb(218,147,226);"/>
                        </g>
                        <g transform="matrix(1,0,0,1,-102,-41)">
                            <path d="M712.017,1296.733C698.258,1296.733 686.127,1293.756 675.623,1287.8C665.119,1281.844 656.889,1273.667 650.933,1263.267C644.978,1252.867 642,1241.043 642,1227.796C642,1214.376 644.978,1202.467 650.933,1192.067C656.889,1181.667 665.119,1173.489 675.623,1167.533C686.127,1161.578 698.258,1158.6 712.017,1158.6C725.961,1158.6 738.222,1161.578 748.8,1167.533C759.378,1173.489 767.6,1181.667 773.467,1192.067C779.333,1202.467 782.267,1214.376 782.267,1227.796C782.267,1241.043 779.333,1252.867 773.467,1263.267C767.6,1273.667 759.378,1281.844 748.8,1287.8C738.222,1293.756 725.961,1296.733 712.017,1296.733ZM712.067,1249.533C718.156,1249.533 723.244,1247.498 727.333,1243.427C731.422,1239.356 733.467,1234.047 733.467,1227.5C733.467,1220.856 731.422,1215.533 727.333,1211.533C723.244,1207.533 718.156,1205.533 712.067,1205.533C706.067,1205.533 701.067,1207.542 697.067,1211.56C693.067,1215.578 691.067,1220.868 691.067,1227.429C691.067,1233.987 693.067,1239.311 697.067,1243.4C701.067,1247.489 706.067,1249.533 712.067,1249.533Z" style="fill:rgb(218,147,226);fill-rule:nonzero;"/>
                        </g>
                    </g>
                    <g transform="matrix(1,0,0,1,-52,0)">
                        <path d="M303.719,1293C293.949,1293 284.676,1288.688 278.379,1281.218C272.083,1273.747 269.403,1263.878 271.058,1254.249C278.498,1210.944 290.035,1143.792 294.112,1120.063C294.972,1115.058 299.312,1111.4 304.39,1111.4C304.695,1111.4 305.006,1111.4 305.321,1111.4C325.328,1111.4 342.943,1124.581 348.589,1143.774C354.988,1165.532 363.184,1193.398 368.447,1211.294C369.167,1213.741 371.396,1215.436 373.947,1215.475C376.498,1215.515 378.778,1213.89 379.573,1211.466C386.643,1189.915 398.514,1153.727 405.878,1131.282C409.769,1119.42 420.84,1111.4 433.324,1111.4C434.27,1111.4 435.217,1111.4 436.158,1111.4C447.395,1111.4 457.001,1119.485 458.919,1130.556C464.65,1163.627 476.394,1231.403 482.75,1268.089C483.822,1274.276 482.107,1280.62 478.064,1285.423C474.021,1290.227 468.063,1293 461.785,1293C459.082,1293 456.406,1293 453.897,1293C445.696,1293 438.744,1286.965 437.592,1278.844C434.435,1256.591 428.667,1215.933 428.667,1215.933C427.422,1206.333 426.178,1196.689 424.933,1187C423.689,1177.311 422.444,1167.578 421.2,1157.8L435.067,1157.8C432.578,1167.222 430.222,1176.733 428,1186.333C425.778,1195.933 423.156,1205.444 420.133,1214.867C420.133,1214.867 406.969,1254.774 399.62,1277.054C396.743,1285.775 388.596,1291.667 379.413,1291.667C378.315,1291.667 377.2,1291.667 376.084,1291.667C364.495,1291.667 354.214,1284.232 350.584,1273.227C343.089,1250.504 331.333,1214.867 331.333,1214.867C328.133,1205.444 325.422,1195.933 323.2,1186.333C320.978,1176.733 318.622,1167.222 316.133,1157.8L330.267,1157.8C329.022,1167.578 327.822,1177.311 326.667,1187C325.511,1196.689 324.222,1206.333 322.8,1215.933C322.8,1215.933 315.814,1265.174 313.011,1284.936C312.354,1289.562 308.394,1293 303.722,1293L303.719,1293Z" style="fill:rgb(218,147,226);fill-rule:nonzero;"/>
                    </g>
                    <g transform="matrix(1,0,0,1,-104.666667,-2)">
                        <path d="M881.2,1158.6C889.733,1158.6 896.8,1160.067 902.4,1163C908,1165.933 912.4,1169.889 915.6,1174.867C918.8,1179.844 921.022,1185.533 922.267,1191.933C923.511,1198.333 924.133,1205 924.133,1211.933L924.133,1250.296C924.133,1273.881 905.014,1293 881.429,1293L881.427,1293C879.952,1293 878.538,1292.414 877.495,1291.372C876.452,1290.329 875.867,1288.915 875.867,1287.44L875.867,1220.2C875.867,1214.156 875.111,1210.244 873.6,1208.467C872.089,1206.689 869.556,1205.8 866,1205.8C863.689,1205.8 861.244,1206.2 858.667,1207C856.089,1207.8 853.333,1209.044 850.4,1210.733C849.443,1211.285 848.462,1211.878 847.457,1212.515C843.423,1215.038 841.075,1219.551 841.325,1224.303C842.171,1240.507 844.192,1278.91 844.774,1289.971C844.815,1290.759 844.531,1291.53 843.988,1292.103C843.444,1292.676 842.689,1293 841.9,1293C841.899,1293 841.899,1293 841.899,1293C816.918,1293 796.667,1272.749 796.667,1247.768C796.667,1220.661 796.667,1188.439 796.667,1172.419C796.667,1166.849 801.182,1162.333 806.753,1162.333C807.049,1162.333 807.348,1162.333 807.651,1162.333C822.296,1162.333 835.324,1171.639 840.074,1185.492C841.062,1188.374 841.733,1190.333 841.733,1190.333L823.333,1187.933C827.6,1183.133 832.711,1178.511 838.667,1174.067C844.622,1169.622 851.2,1165.933 858.4,1163C865.6,1160.067 873.2,1158.6 881.2,1158.6Z" style="fill:rgb(218,147,226);fill-rule:nonzero;"/>
                    </g>
                    <g transform="matrix(1,0,0,1,-107.366667,-1)">
                        <path d="M990.8,1294.333C982.8,1294.333 975.289,1292.867 968.267,1289.933C961.244,1287 955.556,1282.156 951.2,1275.4C946.844,1268.644 944.667,1259.4 944.667,1247.667L944.667,1127.036C944.667,1118.4 951.667,1111.4 960.303,1111.4C960.303,1111.4 960.303,1111.4 960.303,1111.4C978.324,1111.4 992.933,1126.009 992.933,1144.03L992.933,1230.6C992.933,1237.889 993.956,1242.422 996,1244.2C996.679,1244.791 997.462,1245.284 998.348,1245.678C1002.353,1247.461 1004.933,1251.434 1004.933,1255.818C1004.933,1265.03 1004.933,1279.156 1004.933,1287.335C1004.933,1291.049 1001.98,1294.091 998.267,1294.2C998.267,1294.2 998.267,1294.2 998.267,1294.2C995.244,1294.289 992.756,1294.333 990.8,1294.333Z" style="fill:rgb(218,147,226);fill-rule:nonzero;"/>
                    </g>
                    <g transform="matrix(1,0,0,1,-99,1)">
                        <path d="M1061.467,1288.2C1061.467,1288.2 1028.919,1211.001 1014.804,1177.522C1013.379,1174.144 1013.742,1170.278 1015.769,1167.223C1017.796,1164.169 1021.217,1162.333 1024.883,1162.333C1030.234,1162.333 1036.145,1162.333 1041.403,1162.333C1050.653,1162.333 1059.002,1167.876 1062.593,1176.4C1076.384,1209.137 1109.467,1287.667 1109.467,1287.667L1061.467,1288.2ZM1048.993,1343.667C1046.603,1343.667 1044.371,1342.472 1043.047,1340.483C1041.722,1338.494 1041.479,1335.974 1042.4,1333.769C1054.916,1303.802 1092.464,1213.899 1107.586,1177.691C1111.471,1168.39 1120.564,1162.333 1130.644,1162.333C1137.579,1162.333 1145.43,1162.333 1151.575,1162.333C1153.957,1162.333 1156.181,1163.524 1157.502,1165.507C1158.822,1167.49 1159.064,1170.001 1158.146,1172.199C1145.644,1202.134 1108.075,1292.089 1092.948,1328.309C1089.063,1337.61 1079.97,1343.667 1069.89,1343.667C1062.967,1343.667 1055.132,1343.667 1048.993,1343.667Z" style="fill:rgb(218,147,226);fill-rule:nonzero;"/>
                    </g>
                </g>
                <g transform="matrix(15.397438,-10.007108,10.007108,15.397438,218.096478,377.573218)">
                    <path d="M7.833,8.807L9.358,8.568L10.059,7.189L10.059,7.189C10.363,6.387 11.138,5.848 12.002,5.848C12.88,5.848 13.663,6.405 13.957,7.223L14.64,8.568L16.168,8.808C17.261,8.863 18.142,9.778 18.142,10.883C18.142,11.526 17.843,12.133 17.337,12.525C17.178,12.665 16.542,13.231 16.361,13.484C16.335,13.52 16.297,13.588 16.278,13.624L16.512,15.087C16.568,15.275 16.596,15.471 16.596,15.668C16.596,16.808 15.658,17.746 14.518,17.746C14.106,17.746 13.704,17.624 13.363,17.396L11.999,16.697L10.634,17.396C10.294,17.622 9.893,17.744 9.483,17.744C8.343,17.744 7.406,16.806 7.406,15.666C7.406,15.471 7.433,15.277 7.487,15.09L7.727,13.593L6.654,12.524C6.149,12.132 5.851,11.526 5.851,10.883C5.851,9.775 6.737,8.858 7.833,8.807ZM8.122,10.944L9.275,12.093C9.748,12.564 9.967,13.235 9.861,13.894L9.604,15.502L11.052,14.761C11.646,14.456 12.352,14.456 12.946,14.761L14.396,15.503L14.138,13.893C14.042,13.291 14.272,12.699 14.607,12.23C14.843,11.9 15.641,11.158 15.874,10.944L14.267,10.692C13.609,10.589 13.038,10.175 12.736,9.58L11.999,8.129L11.262,9.58C10.96,10.175 10.389,10.589 9.731,10.692L8.122,10.944Z" style="fill:rgb(211,193,32);"/>
                </g>
            </g>
        </g>
    </g>
</svg>
